<svg width="40" height="40" viewBox="0 0 40 40" fill="none" xmlns="http://www.w3.org/2000/svg">
<circle cx="20" cy="20" r="20" fill="#282828" fill-opacity="0.6"/>
<g opacity="0.7">
<path d="M11.9844 14.6523H13.7662H28.0204" stroke="white" stroke-width="1.31818" stroke-linecap="round" stroke-linejoin="round"/>
<path d="M26.2381 14.6534V27.1258C26.2381 27.5984 26.0503 28.0516 25.7162 28.3857C25.382 28.7199 24.9288 28.9076 24.4563 28.9076H15.5474C15.0748 28.9076 14.6216 28.7199 14.2875 28.3857C13.9533 28.0516 13.7656 27.5984 13.7656 27.1258V14.6534M16.4383 14.6534V12.8716C16.4383 12.3991 16.626 11.9459 16.9602 11.6117C17.2943 11.2776 17.7475 11.0898 18.2201 11.0898H21.7836C22.2562 11.0898 22.7094 11.2776 23.0435 11.6117C23.3777 11.9459 23.5654 12.3991 23.5654 12.8716V14.6534" stroke="white" stroke-width="1.31818" stroke-linecap="round" stroke-linejoin="round"/>
</g>
</svg>
