<svg width="40" height="40" viewBox="0 0 40 40" fill="none" xmlns="http://www.w3.org/2000/svg">
<g opacity="0.4">
<path d="M36.6654 20.0026C36.6654 29.2073 29.2034 36.6693 19.9987 36.6693C10.7939 36.6693 3.33203 29.2073 3.33203 20.0026C3.33203 10.7979 10.7939 3.33594 19.9987 3.33594C29.2034 3.33594 36.6654 10.7979 36.6654 20.0026Z" fill="#B0B0B0"/>
<path d="M20 29.5859C20.6903 29.5859 21.25 29.0263 21.25 28.3359V18.3359C21.25 17.6456 20.6903 17.0859 20 17.0859C19.3097 17.0859 18.75 17.6456 18.75 18.3359V28.3359C18.75 29.0263 19.3097 29.5859 20 29.5859Z" fill="#282828"/>
<path d="M19.9987 11.6641C20.9192 11.6641 21.6654 12.4102 21.6654 13.3307C21.6654 14.2512 20.9192 14.9974 19.9987 14.9974C19.0782 14.9974 18.332 14.2512 18.332 13.3307C18.332 12.4102 19.0782 11.6641 19.9987 11.6641Z" fill="#282828"/>
</g>
</svg>
