<svg width="14" height="14" viewBox="0 0 14 14" fill="none" xmlns="http://www.w3.org/2000/svg">
<g opacity="0.5">
<path d="M12.3346 7.00008C12.3346 9.94557 9.94679 12.3334 7.0013 12.3334C4.05578 12.3334 1.66797 9.94557 1.66797 7.00008C1.66797 4.05456 4.05578 1.66675 7.0013 1.66675C9.94679 1.66675 12.3346 4.05456 12.3346 7.00008Z" stroke="white"/>
<path d="M7 10.3542C7.24162 10.3542 7.4375 10.1583 7.4375 9.91667V6.41667C7.4375 6.17506 7.24162 5.97917 7 5.97917C6.75838 5.97917 6.5625 6.17506 6.5625 6.41667V9.91667C6.5625 10.1583 6.75838 10.3542 7 10.3542Z" fill="white"/>
<path d="M7.0013 4.08325C7.32348 4.08325 7.58464 4.34442 7.58464 4.66659C7.58464 4.98875 7.32348 5.24992 7.0013 5.24992C6.67913 5.24992 6.41797 4.98875 6.41797 4.66659C6.41797 4.34442 6.67913 4.08325 7.0013 4.08325Z" fill="white"/>
</g>
</svg>
