<svg width="64" height="64" viewBox="0 0 64 64" fill="none" xmlns="http://www.w3.org/2000/svg">
<circle cx="32" cy="32" r="18.5" stroke="#1D7B3F" stroke-opacity="0.1"/>
<circle cx="32" cy="32" r="23.5" stroke="#1D7B3F" stroke-opacity="0.05"/>
<circle cx="32" cy="32" r="31.5" stroke="#1D7B3F" stroke-opacity="0.02"/>
<rect x="16" y="16" width="32" height="32" rx="16" fill="#1C2D22"/>
<path d="M23.7894 30.5556C23.7894 27.6384 23.7894 26.1799 24.1338 25.6892C24.4782 25.1985 25.8496 24.7291 28.5924 23.7902L29.115 23.6113C30.5448 23.1219 31.2597 22.8772 31.9999 22.8772C32.7401 22.8772 33.455 23.1219 34.8848 23.6113L35.4074 23.7902C38.1502 24.7291 39.5216 25.1985 39.866 25.6892C40.2104 26.1799 40.2104 27.6384 40.2104 30.5556V31.9921C40.2104 37.1356 36.3433 39.6316 33.917 40.6915C33.2588 40.979 32.9298 41.1228 31.9999 41.1228C31.07 41.1228 30.7409 40.979 30.0828 40.6915C27.6565 39.6316 23.7894 37.1356 23.7894 31.9921V30.5556Z" fill="#54BE7B"/>
<path d="M33.3683 34.7368C33.3683 35.2407 32.9599 35.6491 32.456 35.6491H31.5438C31.0399 35.6491 30.6315 35.2407 30.6315 34.7368V33.4584C29.8134 32.9851 29.2631 32.1007 29.2631 31.0877C29.2631 29.5762 30.4883 28.3508 31.9999 28.3508C33.5115 28.3508 34.7367 29.5762 34.7367 31.0877C34.7367 32.1007 34.1864 32.9851 33.3683 33.4584V34.7368Z" fill="white"/>
</svg>
